<?xml version="1.0" encoding="UTF-8" standalone="no"?>
<svg
   xmlns:dc="http://purl.org/dc/elements/1.1/"
   xmlns:cc="http://creativecommons.org/ns#"
   xmlns:rdf="http://www.w3.org/1999/02/22-rdf-syntax-ns#"
   xmlns:svg="http://www.w3.org/2000/svg"
   xmlns="http://www.w3.org/2000/svg"
   xmlns:sodipodi="http://sodipodi.sourceforge.net/DTD/sodipodi-0.dtd"
   xmlns:inkscape="http://www.inkscape.org/namespaces/inkscape"
   style="clip-rule:evenodd;fill-rule:evenodd;stroke-linejoin:round;stroke-miterlimit:1.41420996"
   width="834.81305"
   height="373.58475"
   viewBox="-119851 0 0 150"
   id="svg2"
   version="1.1"
   inkscape:version="0.91 r13725"
   sodipodi:docname="Just Name.svg"
   inkscape:export-filename="/home/joseph/CDS/img/Just Name.png"
   inkscape:export-xdpi="95.07"
   inkscape:export-ydpi="95.07">
  <metadata
     id="metadata46">
    <rdf:RDF>
      <cc:Work
         rdf:about="">
        <dc:format>image/svg+xml</dc:format>
        <dc:type
           rdf:resource="http://purl.org/dc/dcmitype/StillImage" />
        <dc:title />
      </cc:Work>
    </rdf:RDF>
  </metadata>
  <sodipodi:namedview
     pagecolor="#ffffff"
     bordercolor="#666666"
     borderopacity="1"
     objecttolerance="10"
     gridtolerance="10"
     guidetolerance="10"
     inkscape:pageopacity="0"
     inkscape:pageshadow="2"
     inkscape:window-width="1855"
     inkscape:window-height="1056"
     id="namedview44"
     showgrid="false"
     fit-margin-top="20"
     fit-margin-left="20"
     fit-margin-right="20"
     fit-margin-bottom="20"
     inkscape:zoom="1.2067956"
     inkscape:cx="340.70056"
     inkscape:cy="258.19677"
     inkscape:window-x="65"
     inkscape:window-y="24"
     inkscape:window-maximized="1"
     inkscape:current-layer="g22" />
  <defs
     id="defs4">
    <style
       type="text/css"
       id="style6">
    @font-face {
      font-family: ManoPhiser;
      src: url('../Manophiser.otf');
    }
  </style>
    <pattern
       id="pattern-0"
       x="0"
       y="0"
       width="20"
       height="20"
       patternUnits="userSpaceOnUse"
       viewBox="0 0 100 100">
      <path
         d="M 0 0 L 50 0 L 50 100 L 0 100 Z"
         style="fill: black;"
         id="path9" />
    </pattern>
    <style
       id="bx-google-fonts">@import url(https://fonts.googleapis.com/css?family=Roboto:100,100italic,300,300italic,400,400italic,500,500italic,700,700italic,900,900italic);</style>
  </defs>
  <text
     x="-558.04004"
     y="238.37379"
     style="font-size:106.90467834px;font-family:Roboto;white-space:pre"
     id="text12" />
  <path
     d="M 48.759803,52.522989 Z"
     style="fill:none;stroke:#000000;stroke-width:2.96957445"
     id="path14"
     inkscape:connector-curvature="0" />
  <text
     x="643.84766"
     y="344.84793"
     style="font-size:106.90467834px;font-family:Roboto;white-space:pre"
     id="text16" />
  <g
     transform="matrix(2.9586255,0,0,2.8944857,-482.26167,-20.428711)"
     id="g18">
    <path
       d="m 186.387,126.18 c -0.14,2.74 -0.91,4.837 -2.31,6.29 -1.4,1.453 -3.38,2.18 -5.94,2.18 -2.567,0 -4.603,-0.977 -6.11,-2.93 -1.513,-1.947 -2.27,-4.59 -2.27,-7.93 l 0,-4.64 c 0,-3.327 0.777,-5.957 2.33,-7.89 1.553,-1.94 3.67,-2.91 6.35,-2.91 2.473,0 4.387,0.743 5.74,2.23 1.353,1.48 2.09,3.597 2.21,6.35 l -3.25,0 c -0.14,-2.087 -0.58,-3.573 -1.32,-4.46 -0.74,-0.893 -1.867,-1.34 -3.38,-1.34 -1.747,0 -3.087,0.683 -4.02,2.05 -0.94,1.367 -1.41,3.367 -1.41,6 l 0,4.7 c 0,2.587 0.437,4.573 1.31,5.96 0.873,1.38 2.147,2.07 3.82,2.07 1.68,0 2.89,-0.417 3.63,-1.25 0.733,-0.833 1.19,-2.327 1.37,-4.48 l 3.25,0 z m 3.268,-2.27 c 0,-2.767 0.67,-4.953 2.01,-6.56 1.346,-1.613 3.12,-2.42 5.32,-2.42 2.2,0 3.973,0.783 5.32,2.35 1.34,1.573 2.026,3.713 2.06,6.42 l 0,2 c 0,2.76 -0.667,4.94 -2,6.54 -1.334,1.607 -3.114,2.41 -5.34,2.41 -2.207,0 -3.974,-0.78 -5.3,-2.34 -1.334,-1.553 -2.024,-3.66 -2.07,-6.32 l 0,-2.08 m 3.11,1.79 c 0,1.96 0.383,3.5 1.15,4.62 0.766,1.12 1.803,1.68 3.11,1.68 2.74,0 4.15,-1.98 4.23,-5.94 l 0,-2.15 c 0,-1.947 -0.387,-3.483 -1.16,-4.61 -0.774,-1.133 -1.81,-1.7 -3.11,-1.7 -1.28,0 -2.304,0.567 -3.07,1.7 -0.767,1.127 -1.15,2.657 -1.15,4.59 l 0,1.81 z m 23.469,-7.5 c -0.433,-0.08 -0.903,-0.12 -1.41,-0.12 -1.593,0 -2.706,0.87 -3.34,2.61 l 0,13.61 -3.11,0 0,-19.02 3.02,0 0.06,1.93 c 0.827,-1.52 2.004,-2.28 3.53,-2.28 0.494,0 0.904,0.08 1.23,0.24 l 0.02,3.03 z m 6.031,-2.92 0.08,2.06 c 1.207,-1.607 2.75,-2.41 4.63,-2.41 3.36,0 5.064,2.243 5.11,6.73 l 0,12.64 -3.09,0 0,-12.5 c 0,-1.487 -0.25,-2.543 -0.75,-3.17 -0.5,-0.627 -1.246,-0.94 -2.24,-0.94 -0.773,0 -1.466,0.257 -2.08,0.77 -0.62,0.52 -1.116,1.193 -1.49,2.02 l 0,13.82 -3.11,0 0,-19.02 2.94,0 z m 21.28,19.37 c -2.367,0 -4.184,-0.707 -5.45,-2.12 -1.26,-1.407 -1.904,-3.477 -1.93,-6.21 l 0,-2.3 c 0,-2.84 0.616,-5.063 1.85,-6.67 1.24,-1.613 2.966,-2.42 5.18,-2.42 2.226,0 3.89,0.71 4.99,2.13 1.106,1.413 1.67,3.62 1.69,6.62 l 0,2.04 -10.62,0 0,0.44 c 0,2.04 0.386,3.523 1.16,4.45 0.766,0.927 1.87,1.39 3.31,1.39 0.913,0 1.72,-0.173 2.42,-0.52 0.693,-0.347 1.346,-0.893 1.96,-1.64 l 1.61,1.96 c -1.347,1.9 -3.404,2.85 -6.17,2.85 m -0.35,-17.05 c -1.287,0 -2.24,0.443 -2.86,1.33 -0.627,0.887 -0.98,2.26 -1.06,4.12 l 7.49,0 0,-0.42 c -0.08,-1.807 -0.407,-3.097 -0.98,-3.87 -0.567,-0.773 -1.43,-1.16 -2.59,-1.16 z m 13.767,16.7 -3.11,0 0,-27 3.11,0 0,27 z m 8.243,0 -3.11,0 0,-27 3.11,0 0,27 z m 21.812,0 0,-25.59 6.1,0 c 2.987,0 5.307,0.933 6.96,2.8 1.654,1.867 2.48,4.493 2.48,7.88 l 0,4.29 c 0,3.387 -0.836,6.003 -2.51,7.85 -1.68,1.847 -4.113,2.77 -7.3,2.77 l -5.73,0 m 3.22,-22.82 0,20.06 2.58,0 c 2.26,0 3.914,-0.647 4.96,-1.94 1.04,-1.293 1.574,-3.213 1.6,-5.76 l 0,-4.53 c 0,-2.7 -0.52,-4.68 -1.56,-5.94 -1.033,-1.26 -2.6,-1.89 -4.7,-1.89 l -2.88,0 z m 26.678,22.82 c -0.186,-0.413 -0.32,-1.103 -0.4,-2.07 -1.106,1.613 -2.513,2.42 -4.22,2.42 -1.726,0 -3.073,-0.483 -4.04,-1.45 -0.966,-0.967 -1.45,-2.33 -1.45,-4.09 0,-1.933 0.657,-3.467 1.97,-4.6 1.314,-1.14 3.114,-1.72 5.4,-1.74 l 2.28,0 0,-2.02 c 0,-1.14 -0.25,-1.95 -0.75,-2.43 -0.506,-0.48 -1.273,-0.72 -2.3,-0.72 -0.94,0 -1.703,0.28 -2.29,0.84 -0.586,0.553 -0.88,1.257 -0.88,2.11 l -3.11,0 c 0,-0.973 0.287,-1.9 0.86,-2.78 0.574,-0.887 1.347,-1.583 2.32,-2.09 0.974,-0.5 2.057,-0.75 3.25,-0.75 1.947,0 3.427,0.483 4.44,1.45 1.014,0.967 1.534,2.377 1.56,4.23 l 0,9.59 c 0.014,1.467 0.214,2.74 0.6,3.82 l 0,0.28 -3.24,0 m -4.15,-2.48 c 0.767,0 1.494,-0.21 2.18,-0.63 0.694,-0.42 1.197,-0.947 1.51,-1.58 l 0,-4.54 -1.75,0 c -1.48,0.027 -2.646,0.357 -3.5,0.99 -0.853,0.64 -1.28,1.537 -1.28,2.69 0,1.073 0.217,1.853 0.65,2.34 0.434,0.487 1.164,0.73 2.19,0.73 z m 15.684,-21.15 0,4.61 2.86,0 0,2.51 -2.86,0 0,11.8 c 0,0.747 0.123,1.313 0.37,1.7 0.247,0.387 0.667,0.58 1.26,0.58 0.413,0 0.83,-0.07 1.25,-0.21 l -0.03,2.64 c -0.707,0.233 -1.43,0.35 -2.17,0.35 -1.227,0 -2.163,-0.44 -2.81,-1.32 -0.647,-0.88 -0.97,-2.12 -0.97,-3.72 l 0,-11.82 -2.9,0 0,-2.51 2.9,0 0,-4.61 3.1,0 z m 16.344,23.63 c -0.186,-0.413 -0.319,-1.103 -0.4,-2.07 -1.106,1.613 -2.513,2.42 -4.22,2.42 -1.726,0 -3.073,-0.483 -4.039,-1.45 -0.967,-0.967 -1.45,-2.33 -1.45,-4.09 0,-1.933 0.656,-3.467 1.97,-4.6 1.313,-1.14 3.113,-1.72 5.399,-1.74 l 2.28,0 0,-2.02 c 0,-1.14 -0.25,-1.95 -0.75,-2.43 -0.506,-0.48 -1.273,-0.72 -2.299,-0.72 -0.94,0 -1.704,0.28 -2.291,0.84 -0.586,0.553 -0.88,1.257 -0.88,2.11 l -3.109,0 c 0,-0.973 0.286,-1.9 0.859,-2.78 0.574,-0.887 1.347,-1.583 2.321,-2.09 0.973,-0.5 2.056,-0.75 3.25,-0.75 1.946,0 3.426,0.483 4.44,1.45 1.013,0.967 1.533,2.377 1.56,4.23 l 0,9.59 c 0.013,1.467 0.213,2.74 0.6,3.82 l 0,0.28 -3.241,0 m -4.15,-2.48 c 0.767,0 1.494,-0.21 2.181,-0.63 0.693,-0.42 1.196,-0.947 1.509,-1.58 l 0,-4.54 -1.75,0 c -1.479,0.027 -2.646,0.357 -3.5,0.99 -0.853,0.64 -1.28,1.537 -1.28,2.69 0,1.073 0.217,1.853 0.65,2.34 0.434,0.487 1.164,0.73 2.19,0.73 z m 39.712,-3.99 c 0,-1.273 -0.347,-2.25 -1.04,-2.93 -0.687,-0.68 -1.933,-1.343 -3.74,-1.99 -1.807,-0.647 -3.187,-1.323 -4.14,-2.03 -0.953,-0.707 -1.67,-1.517 -2.15,-2.43 -0.473,-0.907 -0.71,-1.947 -0.71,-3.12 0,-2.027 0.677,-3.697 2.03,-5.01 1.353,-1.313 3.127,-1.97 5.32,-1.97 1.5,0 2.837,0.34 4.01,1.02 1.173,0.673 2.073,1.607 2.7,2.8 0.633,1.193 0.95,2.507 0.95,3.94 l -3.23,0 c 0,-1.587 -0.38,-2.813 -1.14,-3.68 -0.767,-0.867 -1.863,-1.3 -3.29,-1.3 -1.3,0 -2.307,0.363 -3.02,1.09 -0.72,0.727 -1.08,1.747 -1.08,3.06 0,1.08 0.387,1.983 1.16,2.71 0.773,0.727 1.97,1.377 3.59,1.95 2.52,0.833 4.323,1.857 5.41,3.07 1.08,1.22 1.62,2.817 1.62,4.79 0,2.073 -0.673,3.733 -2.02,4.98 -1.347,1.247 -3.18,1.87 -5.5,1.87 -1.487,0 -2.86,-0.323 -4.12,-0.97 -1.26,-0.653 -2.25,-1.57 -2.97,-2.75 -0.727,-1.173 -1.09,-2.523 -1.09,-4.05 l 3.24,0 c 0,1.587 0.443,2.817 1.33,3.69 0.88,0.88 2.083,1.32 3.61,1.32 1.413,0 2.48,-0.363 3.2,-1.09 0.713,-0.727 1.07,-1.717 1.07,-2.97 z m 13.64,4.17 c 1.033,0 1.86,-0.32 2.48,-0.96 0.62,-0.64 0.96,-1.55 1.02,-2.73 l 2.93,0 c -0.067,1.827 -0.714,3.34 -1.94,4.54 -1.227,1.2 -2.724,1.8 -4.49,1.8 -2.354,0 -4.15,-0.74 -5.39,-2.22 -1.234,-1.487 -1.85,-3.693 -1.85,-6.62 l 0,-2.09 c 0,-2.873 0.613,-5.057 1.84,-6.55 1.233,-1.493 3.026,-2.24 5.38,-2.24 1.946,0 3.49,0.613 4.63,1.84 1.146,1.233 1.753,2.917 1.82,5.05 l -2.93,0 c -0.074,-1.407 -0.41,-2.46 -1.01,-3.16 -0.607,-0.707 -1.444,-1.06 -2.51,-1.06 -1.38,0 -2.404,0.453 -3.07,1.36 -0.674,0.913 -1.02,2.407 -1.04,4.48 l 0,2.42 c 0,2.24 0.33,3.823 0.99,4.75 0.666,0.927 1.713,1.39 3.14,1.39 z m 13.378,2.3 -3.11,0 0,-19.02 3.11,0 0,19.02 m 0.24,-24.06 c 0,0.527 -0.146,0.963 -0.44,1.31 -0.293,0.353 -0.736,0.53 -1.33,0.53 -0.586,0 -1.026,-0.177 -1.32,-0.53 -0.293,-0.347 -0.44,-0.783 -0.44,-1.31 0,-0.533 0.147,-0.98 0.44,-1.34 0.294,-0.367 0.734,-0.55 1.32,-0.55 0.587,0 1.03,0.187 1.33,0.56 0.294,0.367 0.44,0.81 0.44,1.33 z m 11.444,24.41 c -2.367,0 -4.183,-0.707 -5.45,-2.12 -1.26,-1.407 -1.903,-3.477 -1.93,-6.21 l 0,-2.3 c 0,-2.84 0.617,-5.063 1.85,-6.67 1.24,-1.613 2.967,-2.42 5.18,-2.42 2.227,0 3.89,0.71 4.99,2.13 1.107,1.413 1.67,3.62 1.69,6.62 l 0,2.04 -10.62,0 0,0.44 c 0,2.04 0.387,3.523 1.16,4.45 0.767,0.927 1.87,1.39 3.31,1.39 0.913,0 1.72,-0.173 2.42,-0.52 0.693,-0.347 1.347,-0.893 1.96,-1.64 l 1.61,1.96 c -1.347,1.9 -3.403,2.85 -6.17,2.85 m -0.35,-17.05 c -1.287,0 -2.24,0.443 -2.86,1.33 -0.627,0.887 -0.98,2.26 -1.06,4.12 l 7.49,0 0,-0.42 c -0.08,-1.807 -0.407,-3.097 -0.98,-3.87 -0.567,-0.773 -1.43,-1.16 -2.59,-1.16 z m 13.347,-2.32 0.08,2.06 c 1.207,-1.607 2.75,-2.41 4.63,-2.41 3.36,0 5.063,2.243 5.11,6.73 l 0,12.64 -3.09,0 0,-12.5 c 0,-1.487 -0.25,-2.543 -0.75,-3.17 -0.5,-0.627 -1.247,-0.94 -2.24,-0.94 -0.773,0 -1.467,0.257 -2.08,0.77 -0.62,0.52 -1.117,1.193 -1.49,2.02 l 0,13.82 -3.11,0 0,-19.02 2.94,0 z M 453.143,132 c 1.034,0 1.86,-0.32 2.48,-0.96 0.62,-0.64 0.96,-1.55 1.02,-2.73 l 2.93,0 c -0.066,1.827 -0.713,3.34 -1.94,4.54 -1.226,1.2 -2.723,1.8 -4.49,1.8 -2.353,0 -4.15,-0.74 -5.39,-2.22 -1.233,-1.487 -1.85,-3.693 -1.85,-6.62 l 0,-2.09 c 0,-2.873 0.614,-5.057 1.84,-6.55 1.234,-1.493 3.027,-2.24 5.38,-2.24 1.947,0 3.49,0.613 4.63,1.84 1.147,1.233 1.754,2.917 1.82,5.05 l -2.93,0 c -0.073,-1.407 -0.41,-2.46 -1.01,-3.16 -0.606,-0.707 -1.443,-1.06 -2.51,-1.06 -1.38,0 -2.403,0.453 -3.07,1.36 -0.673,0.913 -1.02,2.407 -1.04,4.48 l 0,2.42 c 0,2.24 0.33,3.823 0.99,4.75 0.667,0.927 1.714,1.39 3.14,1.39 z m 16.819,2.65 c -2.367,0 -4.183,-0.707 -5.45,-2.12 -1.26,-1.407 -1.904,-3.477 -1.93,-6.21 l 0,-2.3 c 0,-2.84 0.616,-5.063 1.85,-6.67 1.24,-1.613 2.966,-2.42 5.18,-2.42 2.227,0 3.89,0.71 4.99,2.13 1.106,1.413 1.67,3.62 1.69,6.62 l 0,2.04 -10.62,0 0,0.44 c 0,2.04 0.387,3.523 1.16,4.45 0.766,0.927 1.87,1.39 3.31,1.39 0.913,0 1.72,-0.173 2.42,-0.52 0.693,-0.347 1.347,-0.893 1.96,-1.64 l 1.61,1.96 c -1.347,1.9 -3.404,2.85 -6.17,2.85 m -0.35,-17.05 c -1.287,0 -2.24,0.443 -2.86,1.33 -0.627,0.887 -0.98,2.26 -1.06,4.12 l 7.49,0 0,-0.42 c -0.08,-1.807 -0.407,-3.097 -0.98,-3.87 -0.567,-0.773 -1.43,-1.16 -2.59,-1.16 z"
       transform="matrix(0.87638497,0,0,0.65959007,20.989342,40.402058)"
       style="white-space:pre;fill:#33376f"
       id="path20"
       inkscape:connector-curvature="0" />
    <g
       id="g22">
      <path
         style="white-space:pre;fill:#33376f;stroke-linejoin:miter"
         d="m 247.57742,73.036135 c -0.72833,9.244736 -4.4794,16.540463 -11.2532,21.890032 -6.75193,5.329523 -15.65134,8.013793 -26.69511,8.052783 -12.06594,0.0426 -21.56865,-3.632132 -28.50813,-11.024184 -6.9176,-7.392129 -10.37796,-17.563409 -10.37796,-30.51385 l 0,-5.277162 c 0,-8.25234 1.59421,-15.543305 4.78262,-21.867188 3.1884,-6.306768 7.75221,-11.152197 13.6914,-14.539139 5.93919,-3.386942 12.83803,-5.094286 20.6934,-5.122019 10.85622,-0.03833 19.60871,2.583615 26.25748,7.865828 6.64877,5.302182 10.49362,12.7508 11.53454,22.35156 l -19.41178,0.06853 c -0.47827,-5.552168 -2.17875,-9.568217 -5.09521,-12.048171 -2.91645,-2.499921 -7.34584,-3.739392 -13.28503,-3.718423 -6.47998,0.02288 -11.32511,2.159406 -14.5354,6.412437 -3.21029,4.233063 -4.86701,10.799708 -4.97016,19.699935 l 0,6.503746 c 0,9.299215 1.55356,16.082728 4.65757,20.350549 3.08526,4.287855 7.93977,6.418664 14.56666,6.395267 6.00171,-0.02119 10.48111,-1.283555 13.44133,-3.784256 2.96022,-2.520668 4.65758,-6.397531 5.0952,-11.627745 z"
         id="path4159" />
      <path
         style="white-space:pre;fill:#33376f;stroke-linejoin:miter"
         d="M 401.53906 24.410156 L 315.71484 24.707031 L 315.71484 65.988281 L 501.91016 65.988281 C 492.48844 54.920901 480.95769 45.905735 467.29492 38.962891 C 447.93814 29.179651 426.01941 24.325608 401.53906 24.410156 z M 315.71484 82.505859 L 315.71484 104.86719 L 373.14648 104.86719 L 373.14648 82.505859 L 315.71484 82.505859 z M 450.1875 82.505859 C 451.17125 83.440413 452.13467 84.399961 453.05273 85.414062 C 457.93266 90.830093 461.78017 97.324915 464.62695 104.86719 L 523.32227 104.86719 C 520.86605 97.041537 517.60936 89.584029 513.52539 82.505859 L 450.1875 82.505859 z M 315.71484 121.38281 L 315.71484 141.76367 L 373.14648 141.76367 L 373.14648 121.38281 L 315.71484 121.38281 z M 468.97852 121.38281 C 470.02166 127.65552 470.56674 134.44965 470.61523 141.76367 L 528.87891 141.76367 C 528.82886 134.73684 528.2686 127.94489 527.20898 121.38281 L 468.97852 121.38281 z M 315.71484 158.2793 L 315.71484 179.65625 L 373.14648 179.65625 L 373.14648 158.2793 L 315.71484 158.2793 z M 470.56836 158.2793 C 470.37442 165.98561 469.56917 173.10304 468.17773 179.65625 L 526.53516 179.65625 C 527.85414 172.79169 528.62869 165.67092 528.83008 158.2793 L 470.56836 158.2793 z M 315.71484 196.17188 L 315.71484 216.57812 L 373.14648 216.57812 L 373.14648 196.17188 L 315.71484 196.17188 z M 462.87109 196.17188 C 460.11641 202.26255 456.63266 207.65084 452.4043 212.32031 C 451.04538 213.82918 449.60795 215.24155 448.10938 216.57812 L 512.57812 216.57812 C 512.67969 216.40838 512.78789 216.24468 512.88867 216.07422 C 516.62038 209.74759 519.69632 203.11252 522.12109 196.17188 L 462.87109 196.17188 z M 315.71484 233.09375 L 315.71484 273.64258 L 402.09375 273.3457 C 426.45389 273.15423 448.33627 268.06677 467.75781 258.0918 C 480.56259 251.5152 491.45241 243.17471 500.45117 233.09375 L 315.71484 233.09375 z "
         transform="matrix(0.33799479,0,0,0.34548452,163.00193,7.0578034)"
         id="path4157" />
      <path
         style="white-space:pre;fill:#33376f;stroke-linejoin:miter"
         d="m 414.11552,78.524037 c 0,-3.346006 -1.29412,-5.908705 -3.87611,-7.688119 -2.58511,-1.779403 -7.24269,-3.654181 -13.97273,-5.627184 -6.73317,-1.953025 -12.05656,-3.893912 -15.9733,-5.819797 -10.71243,-5.230784 -16.06708,-12.314654 -16.06708,-21.2516 0,-4.658165 1.43791,-8.810805 4.31373,-12.452217 2.85394,-3.661301 6.97073,-6.519798 12.34727,-8.572627 5.37653,-2.072796 11.4095,-3.121003 18.09891,-3.14462 6.73004,-0.02376 12.72237,1.067567 17.97387,3.273992 5.27025,2.206359 9.36517,5.329674 12.28475,9.369944 2.91646,4.040282 4.37625,8.647653 4.37625,13.819272 l -19.44304,0.06864 c 0,-3.936478 -1.35664,-6.992442 -4.06366,-9.170768 -2.71015,-2.178314 -6.52374,-3.257366 -11.44076,-3.240006 -4.75136,0.01677 -8.45241,0.942648 -11.09692,2.777597 -2.62574,1.834883 -3.93862,4.255603 -3.93862,7.259306 0,2.79547 1.54107,5.129095 4.62632,7.000866 3.08213,1.871782 7.62717,3.624298 13.62888,5.25757 11.04378,3.004649 19.08669,6.74158 24.13188,11.210782 5.06395,4.469135 7.59592,10.051135 7.59592,16.746 0,7.436519 -3.08526,13.283668 -9.25264,17.547139 -6.18926,4.243579 -14.50413,6.383799 -24.94461,6.420659 -7.23331,0.0255 -13.82894,-1.15779 -19.78689,-3.55284 -5.96107,-2.395039 -10.50299,-5.696484 -13.62888,-9.907178 -3.1259,-4.190726 -4.68884,-9.063017 -4.68884,-14.616873 l 19.4743,-0.06875 c 0,9.490334 6.20802,14.212157 18.63031,14.1683 4.62632,-0.01633 8.23047,-0.884814 10.81558,-2.605453 2.58199,-1.720628 3.87611,-4.121313 3.87611,-7.202035 z"
         id="path24" />
      <g
         id="g26" />
      <g
         id="g36" />
    </g>
  </g>
  <path
     d="M 17.225883,294.00878 817.22032,292.51211"
     style="fill:none;stroke:#33376f;stroke-width:2.96957445"
     id="path42"
     inkscape:connector-curvature="0" />
</svg>
