<?xml version="1.0" encoding="utf-8"?>
<svg style="fill-rule:evenodd;clip-rule:evenodd;stroke-linejoin:round;stroke-miterlimit:1.41421;" width="100%" height="100%" viewBox="0 0 450 150" xmlns="http://www.w3.org/2000/svg">
  <defs>
    <style type="text/css">
    @font-face {
      font-family: ManoPhiser;
      src: url('../Manophiser.otf');
    }
  </style>
    <pattern id="pattern-0" x="0" y="0" width="20" height="20" patternUnits="userSpaceOnUse" viewBox="0 0 100 100">
      <path d="M 0 0 L 50 0 L 50 100 L 0 100 Z" style="fill: black;"/>
    </pattern>
    <style id="bx-google-fonts">@import url(https://fonts.googleapis.com/css?family=Roboto:100,100italic,300,300italic,400,400italic,500,500italic,700,700italic,900,900italic);</style>
  </defs>
  <g id="CDS_Logo_Test" transform="matrix(1.263283, 0, 0, -1.263884, 139.699814, -329.569305)">
    <g id="Layer 1" transform="matrix(0.303745,0,0,-0.303745,-101.907,-57.4302)">
      <g id="path3116" transform="matrix(1.3701,0,0,1.3701,36.562,671.99)">
        <path d="M134.651,109.813C134.651,147.826 103.835,178.643 65.821,178.643C27.807,178.643 -3.009,147.826 -3.009,109.813C-3.009,71.799 27.807,40.982 65.821,40.982C103.835,40.982 134.651,71.799 134.651,109.813Z" style="fill:rgb(43,46,104);fill-opacity:0.788136;fill-rule:nonzero;"/>
      </g>
      <g id="path3952" transform="matrix(1.3701,0,0,1.3701,131.354,672.486)">
        <path d="M134.651,109.813C134.651,147.826 103.835,178.643 65.821,178.643C27.807,178.643 -3.009,147.826 -3.009,109.813C-3.009,71.799 27.807,40.982 65.821,40.982C103.835,40.982 134.651,71.799 134.651,109.813Z" style="fill:rgb(43,46,104);fill-opacity:0.788136;fill-rule:nonzero;"/>
      </g>
      <g id="path3976" transform="matrix(1.3701,0,0,1.3701,83.1989,752.389)">
        <path d="M134.651,109.813C134.651,147.826 103.835,178.643 65.821,178.643C27.807,178.643 -3.009,147.826 -3.009,109.813C-3.009,71.799 27.807,40.982 65.821,40.982C103.835,40.982 134.651,71.799 134.651,109.813Z" style="fill:rgb(43,46,104);fill-opacity:0.788136;fill-rule:nonzero;"/>
      </g>
      <path id="path3990" d="M128.123,702.649C62.71,702.649 9.123,756.194 9.123,821.617C9.123,860.352 27.829,894.964 56.716,916.711C64.013,975.293 114.296,1021.02 174.748,1021.02C234.546,1021.02 284.372,976.277 292.498,918.586C322.418,896.94 341.904,861.67 341.904,822.117C341.904,756.694 288.317,703.149 222.904,703.149C206.357,703.149 190.512,706.636 176.091,712.805C161.388,706.317 145.135,702.649 128.123,702.649L128.123,702.649ZM127.529,713.836C144.723,713.836 160.918,718.109 175.373,725.305C189.612,718.396 205.498,714.336 222.31,714.336C281.679,714.336 330.123,762.743 330.123,822.117C330.123,859.688 310.651,892.736 281.373,912.024C276.295,966.751 230.148,1009.84 174.154,1009.84C117.622,1009.84 71.141,965.893 66.81,910.43C38.447,890.995 19.716,858.48 19.716,821.617C19.716,762.243 68.16,713.836 127.529,713.836L127.529,713.836Z" style="fill:rgb(43,46,104);fill-rule:nonzero;"/>
    </g>
  </g>
  <text x="-28.828" y="90.562" style="font-size: 36; font-family: Roboto; white-space: pre;"> </text>
  <path d="M 175.511 27.977 Z" style="stroke: black; fill: none;"/>
  <text x="375.906" y="126.417" style="font-size: 36; font-family: Roboto; white-space: pre;"> </text>
  <g transform="matrix(0.996313, 0, 0, 0.974714, -3.309734, 3.410616)">
    <path d="M 186.387 126.18 C 186.247 128.92 185.477 131.017 184.077 132.47 C 182.677 133.923 180.697 134.65 178.137 134.65 C 175.57 134.65 173.534 133.673 172.027 131.72 C 170.514 129.773 169.757 127.13 169.757 123.79 L 169.757 119.15 C 169.757 115.823 170.534 113.193 172.087 111.26 C 173.64 109.32 175.757 108.35 178.437 108.35 C 180.91 108.35 182.824 109.093 184.177 110.58 C 185.53 112.06 186.267 114.177 186.387 116.93 L 183.137 116.93 C 182.997 114.843 182.557 113.357 181.817 112.47 C 181.077 111.577 179.95 111.13 178.437 111.13 C 176.69 111.13 175.35 111.813 174.417 113.18 C 173.477 114.547 173.007 116.547 173.007 119.18 L 173.007 123.88 C 173.007 126.467 173.444 128.453 174.317 129.84 C 175.19 131.22 176.464 131.91 178.137 131.91 C 179.817 131.91 181.027 131.493 181.767 130.66 C 182.5 129.827 182.957 128.333 183.137 126.18 L 186.387 126.18 ZM 189.655 123.91 C 189.655 121.143 190.325 118.957 191.665 117.35 C 193.011 115.737 194.785 114.93 196.985 114.93 C 199.185 114.93 200.958 115.713 202.305 117.28 C 203.645 118.853 204.331 120.993 204.365 123.7 L 204.365 125.7 C 204.365 128.46 203.698 130.64 202.365 132.24 C 201.031 133.847 199.251 134.65 197.025 134.65 C 194.818 134.65 193.051 133.87 191.725 132.31 C 190.391 130.757 189.701 128.65 189.655 125.99 L 189.655 123.91 M 192.765 125.7 C 192.765 127.66 193.148 129.2 193.915 130.32 C 194.681 131.44 195.718 132 197.025 132 C 199.765 132 201.175 130.02 201.255 126.06 L 201.255 123.91 C 201.255 121.963 200.868 120.427 200.095 119.3 C 199.321 118.167 198.285 117.6 196.985 117.6 C 195.705 117.6 194.681 118.167 193.915 119.3 C 193.148 120.427 192.765 121.957 192.765 123.89 L 192.765 125.7 ZM 216.234 118.2 C 215.801 118.12 215.331 118.08 214.824 118.08 C 213.231 118.08 212.118 118.95 211.484 120.69 L 211.484 134.3 L 208.374 134.3 L 208.374 115.28 L 211.394 115.28 L 211.454 117.21 C 212.281 115.69 213.458 114.93 214.984 114.93 C 215.478 114.93 215.888 115.01 216.214 115.17 L 216.234 118.2 ZM 222.265 115.28 L 222.345 117.34 C 223.552 115.733 225.095 114.93 226.975 114.93 C 230.335 114.93 232.039 117.173 232.085 121.66 L 232.085 134.3 L 228.995 134.3 L 228.995 121.8 C 228.995 120.313 228.745 119.257 228.245 118.63 C 227.745 118.003 226.999 117.69 226.005 117.69 C 225.232 117.69 224.539 117.947 223.925 118.46 C 223.305 118.98 222.809 119.653 222.435 120.48 L 222.435 134.3 L 219.325 134.3 L 219.325 115.28 L 222.265 115.28 ZM 243.545 134.65 C 241.178 134.65 239.361 133.943 238.095 132.53 C 236.835 131.123 236.191 129.053 236.165 126.32 L 236.165 124.02 C 236.165 121.18 236.781 118.957 238.015 117.35 C 239.255 115.737 240.981 114.93 243.195 114.93 C 245.421 114.93 247.085 115.64 248.185 117.06 C 249.291 118.473 249.855 120.68 249.875 123.68 L 249.875 125.72 L 239.255 125.72 L 239.255 126.16 C 239.255 128.2 239.641 129.683 240.415 130.61 C 241.181 131.537 242.285 132 243.725 132 C 244.638 132 245.445 131.827 246.145 131.48 C 246.838 131.133 247.491 130.587 248.105 129.84 L 249.715 131.8 C 248.368 133.7 246.311 134.65 243.545 134.65 M 243.195 117.6 C 241.908 117.6 240.955 118.043 240.335 118.93 C 239.708 119.817 239.355 121.19 239.275 123.05 L 246.765 123.05 L 246.765 122.63 C 246.685 120.823 246.358 119.533 245.785 118.76 C 245.218 117.987 244.355 117.6 243.195 117.6 ZM 256.962 134.3 L 253.852 134.3 L 253.852 107.3 L 256.962 107.3 L 256.962 134.3 ZM 265.205 134.3 L 262.095 134.3 L 262.095 107.3 L 265.205 107.3 L 265.205 134.3 ZM 287.017 134.3 L 287.017 108.71 L 293.117 108.71 C 296.104 108.71 298.424 109.643 300.077 111.51 C 301.731 113.377 302.557 116.003 302.557 119.39 L 302.557 123.68 C 302.557 127.067 301.721 129.683 300.047 131.53 C 298.367 133.377 295.934 134.3 292.747 134.3 L 287.017 134.3 M 290.237 111.48 L 290.237 131.54 L 292.817 131.54 C 295.077 131.54 296.731 130.893 297.777 129.6 C 298.817 128.307 299.351 126.387 299.377 123.84 L 299.377 119.31 C 299.377 116.61 298.857 114.63 297.817 113.37 C 296.784 112.11 295.217 111.48 293.117 111.48 L 290.237 111.48 ZM 316.915 134.3 C 316.729 133.887 316.595 133.197 316.515 132.23 C 315.409 133.843 314.002 134.65 312.295 134.65 C 310.569 134.65 309.222 134.167 308.255 133.2 C 307.289 132.233 306.805 130.87 306.805 129.11 C 306.805 127.177 307.462 125.643 308.775 124.51 C 310.089 123.37 311.889 122.79 314.175 122.77 L 316.455 122.77 L 316.455 120.75 C 316.455 119.61 316.205 118.8 315.705 118.32 C 315.199 117.84 314.432 117.6 313.405 117.6 C 312.465 117.6 311.702 117.88 311.115 118.44 C 310.529 118.993 310.235 119.697 310.235 120.55 L 307.125 120.55 C 307.125 119.577 307.412 118.65 307.985 117.77 C 308.559 116.883 309.332 116.187 310.305 115.68 C 311.279 115.18 312.362 114.93 313.555 114.93 C 315.502 114.93 316.982 115.413 317.995 116.38 C 319.009 117.347 319.529 118.757 319.555 120.61 L 319.555 130.2 C 319.569 131.667 319.769 132.94 320.155 134.02 L 320.155 134.3 L 316.915 134.3 M 312.765 131.82 C 313.532 131.82 314.259 131.61 314.945 131.19 C 315.639 130.77 316.142 130.243 316.455 129.61 L 316.455 125.07 L 314.705 125.07 C 313.225 125.097 312.059 125.427 311.205 126.06 C 310.352 126.7 309.925 127.597 309.925 128.75 C 309.925 129.823 310.142 130.603 310.575 131.09 C 311.009 131.577 311.739 131.82 312.765 131.82 ZM 328.449 110.67 L 328.449 115.28 L 331.309 115.28 L 331.309 117.79 L 328.449 117.79 L 328.449 129.59 C 328.449 130.337 328.572 130.903 328.819 131.29 C 329.066 131.677 329.486 131.87 330.079 131.87 C 330.492 131.87 330.909 131.8 331.329 131.66 L 331.299 134.3 C 330.592 134.533 329.869 134.65 329.129 134.65 C 327.902 134.65 326.966 134.21 326.319 133.33 C 325.672 132.45 325.349 131.21 325.349 129.61 L 325.349 117.79 L 322.449 117.79 L 322.449 115.28 L 325.349 115.28 L 325.349 110.67 L 328.449 110.67 ZM 344.793 134.3 C 344.607 133.887 344.474 133.197 344.393 132.23 C 343.287 133.843 341.88 134.65 340.173 134.65 C 338.447 134.65 337.1 134.167 336.134 133.2 C 335.167 132.233 334.684 130.87 334.684 129.11 C 334.684 127.177 335.34 125.643 336.654 124.51 C 337.967 123.37 339.767 122.79 342.053 122.77 L 344.333 122.77 L 344.333 120.75 C 344.333 119.61 344.083 118.8 343.583 118.32 C 343.077 117.84 342.31 117.6 341.284 117.6 C 340.344 117.6 339.58 117.88 338.993 118.44 C 338.407 118.993 338.113 119.697 338.113 120.55 L 335.004 120.55 C 335.004 119.577 335.29 118.65 335.863 117.77 C 336.437 116.883 337.21 116.187 338.184 115.68 C 339.157 115.18 340.24 114.93 341.434 114.93 C 343.38 114.93 344.86 115.413 345.874 116.38 C 346.887 117.347 347.407 118.757 347.434 120.61 L 347.434 130.2 C 347.447 131.667 347.647 132.94 348.034 134.02 L 348.034 134.3 L 344.793 134.3 M 340.643 131.82 C 341.41 131.82 342.137 131.61 342.824 131.19 C 343.517 130.77 344.02 130.243 344.333 129.61 L 344.333 125.07 L 342.583 125.07 C 341.104 125.097 339.937 125.427 339.083 126.06 C 338.23 126.7 337.803 127.597 337.803 128.75 C 337.803 129.823 338.02 130.603 338.453 131.09 C 338.887 131.577 339.617 131.82 340.643 131.82 ZM 380.355 127.83 C 380.355 126.557 380.008 125.58 379.315 124.9 C 378.628 124.22 377.382 123.557 375.575 122.91 C 373.768 122.263 372.388 121.587 371.435 120.88 C 370.482 120.173 369.765 119.363 369.285 118.45 C 368.812 117.543 368.575 116.503 368.575 115.33 C 368.575 113.303 369.252 111.633 370.605 110.32 C 371.958 109.007 373.732 108.35 375.925 108.35 C 377.425 108.35 378.762 108.69 379.935 109.37 C 381.108 110.043 382.008 110.977 382.635 112.17 C 383.268 113.363 383.585 114.677 383.585 116.11 L 380.355 116.11 C 380.355 114.523 379.975 113.297 379.215 112.43 C 378.448 111.563 377.352 111.13 375.925 111.13 C 374.625 111.13 373.618 111.493 372.905 112.22 C 372.185 112.947 371.825 113.967 371.825 115.28 C 371.825 116.36 372.212 117.263 372.985 117.99 C 373.758 118.717 374.955 119.367 376.575 119.94 C 379.095 120.773 380.898 121.797 381.985 123.01 C 383.065 124.23 383.605 125.827 383.605 127.8 C 383.605 129.873 382.932 131.533 381.585 132.78 C 380.238 134.027 378.405 134.65 376.085 134.65 C 374.598 134.65 373.225 134.327 371.965 133.68 C 370.705 133.027 369.715 132.11 368.995 130.93 C 368.268 129.757 367.905 128.407 367.905 126.88 L 371.145 126.88 C 371.145 128.467 371.588 129.697 372.475 130.57 C 373.355 131.45 374.558 131.89 376.085 131.89 C 377.498 131.89 378.565 131.527 379.285 130.8 C 379.998 130.073 380.355 129.083 380.355 127.83 ZM 393.995 132 C 395.028 132 395.855 131.68 396.475 131.04 C 397.095 130.4 397.435 129.49 397.495 128.31 L 400.425 128.31 C 400.358 130.137 399.711 131.65 398.485 132.85 C 397.258 134.05 395.761 134.65 393.995 134.65 C 391.641 134.65 389.845 133.91 388.605 132.43 C 387.371 130.943 386.755 128.737 386.755 125.81 L 386.755 123.72 C 386.755 120.847 387.368 118.663 388.595 117.17 C 389.828 115.677 391.621 114.93 393.975 114.93 C 395.921 114.93 397.465 115.543 398.605 116.77 C 399.751 118.003 400.358 119.687 400.425 121.82 L 397.495 121.82 C 397.421 120.413 397.085 119.36 396.485 118.66 C 395.878 117.953 395.041 117.6 393.975 117.6 C 392.595 117.6 391.571 118.053 390.905 118.96 C 390.231 119.873 389.885 121.367 389.865 123.44 L 389.865 125.86 C 389.865 128.1 390.195 129.683 390.855 130.61 C 391.521 131.537 392.568 132 393.995 132 ZM 407.373 134.3 L 404.263 134.3 L 404.263 115.28 L 407.373 115.28 L 407.373 134.3 M 407.613 110.24 C 407.613 110.767 407.467 111.203 407.173 111.55 C 406.88 111.903 406.437 112.08 405.843 112.08 C 405.257 112.08 404.817 111.903 404.523 111.55 C 404.23 111.203 404.083 110.767 404.083 110.24 C 404.083 109.707 404.23 109.26 404.523 108.9 C 404.817 108.533 405.257 108.35 405.843 108.35 C 406.43 108.35 406.873 108.537 407.173 108.91 C 407.467 109.277 407.613 109.72 407.613 110.24 ZM 419.057 134.65 C 416.69 134.65 414.874 133.943 413.607 132.53 C 412.347 131.123 411.704 129.053 411.677 126.32 L 411.677 124.02 C 411.677 121.18 412.294 118.957 413.527 117.35 C 414.767 115.737 416.494 114.93 418.707 114.93 C 420.934 114.93 422.597 115.64 423.697 117.06 C 424.804 118.473 425.367 120.68 425.387 123.68 L 425.387 125.72 L 414.767 125.72 L 414.767 126.16 C 414.767 128.2 415.154 129.683 415.927 130.61 C 416.694 131.537 417.797 132 419.237 132 C 420.15 132 420.957 131.827 421.657 131.48 C 422.35 131.133 423.004 130.587 423.617 129.84 L 425.227 131.8 C 423.88 133.7 421.824 134.65 419.057 134.65 M 418.707 117.6 C 417.42 117.6 416.467 118.043 415.847 118.93 C 415.22 119.817 414.867 121.19 414.787 123.05 L 422.277 123.05 L 422.277 122.63 C 422.197 120.823 421.87 119.533 421.297 118.76 C 420.73 117.987 419.867 117.6 418.707 117.6 ZM 432.054 115.28 L 432.134 117.34 C 433.341 115.733 434.884 114.93 436.764 114.93 C 440.124 114.93 441.827 117.173 441.874 121.66 L 441.874 134.3 L 438.784 134.3 L 438.784 121.8 C 438.784 120.313 438.534 119.257 438.034 118.63 C 437.534 118.003 436.787 117.69 435.794 117.69 C 435.021 117.69 434.327 117.947 433.714 118.46 C 433.094 118.98 432.597 119.653 432.224 120.48 L 432.224 134.3 L 429.114 134.3 L 429.114 115.28 L 432.054 115.28 ZM 453.143 132 C 454.177 132 455.003 131.68 455.623 131.04 C 456.243 130.4 456.583 129.49 456.643 128.31 L 459.573 128.31 C 459.507 130.137 458.86 131.65 457.633 132.85 C 456.407 134.05 454.91 134.65 453.143 134.65 C 450.79 134.65 448.993 133.91 447.753 132.43 C 446.52 130.943 445.903 128.737 445.903 125.81 L 445.903 123.72 C 445.903 120.847 446.517 118.663 447.743 117.17 C 448.977 115.677 450.77 114.93 453.123 114.93 C 455.07 114.93 456.613 115.543 457.753 116.77 C 458.9 118.003 459.507 119.687 459.573 121.82 L 456.643 121.82 C 456.57 120.413 456.233 119.36 455.633 118.66 C 455.027 117.953 454.19 117.6 453.123 117.6 C 451.743 117.6 450.72 118.053 450.053 118.96 C 449.38 119.873 449.033 121.367 449.013 123.44 L 449.013 125.86 C 449.013 128.1 449.343 129.683 450.003 130.61 C 450.67 131.537 451.717 132 453.143 132 ZM 469.962 134.65 C 467.595 134.65 465.779 133.943 464.512 132.53 C 463.252 131.123 462.608 129.053 462.582 126.32 L 462.582 124.02 C 462.582 121.18 463.198 118.957 464.432 117.35 C 465.672 115.737 467.398 114.93 469.612 114.93 C 471.839 114.93 473.502 115.64 474.602 117.06 C 475.708 118.473 476.272 120.68 476.292 123.68 L 476.292 125.72 L 465.672 125.72 L 465.672 126.16 C 465.672 128.2 466.059 129.683 466.832 130.61 C 467.598 131.537 468.702 132 470.142 132 C 471.055 132 471.862 131.827 472.562 131.48 C 473.255 131.133 473.909 130.587 474.522 129.84 L 476.132 131.8 C 474.785 133.7 472.728 134.65 469.962 134.65 M 469.612 117.6 C 468.325 117.6 467.372 118.043 466.752 118.93 C 466.125 119.817 465.772 121.19 465.692 123.05 L 473.182 123.05 L 473.182 122.63 C 473.102 120.823 472.775 119.533 472.202 118.76 C 471.635 117.987 470.772 117.6 469.612 117.6 Z" transform="matrix(0.876384973526001, 0, 0, 0.6595900654792786, 20.989341735839844, 40.40205764770508)" style="fill: rgb(51, 55, 111); white-space: pre;"/>
    <g>
      <path d="M 247.181 36.429 C 246.948 39.669 245.748 42.222 243.581 44.089 C 241.421 45.949 238.574 46.879 235.041 46.879 C 231.181 46.879 228.141 45.579 225.921 42.979 C 223.708 40.379 222.601 36.809 222.601 32.269 L 222.601 30.419 C 222.601 27.526 223.111 24.972 224.131 22.759 C 225.151 20.552 226.611 18.859 228.511 17.679 C 230.411 16.499 232.618 15.909 235.131 15.909 C 238.604 15.909 241.404 16.839 243.531 18.699 C 245.658 20.566 246.888 23.182 247.221 26.549 L 241.011 26.549 C 240.858 24.602 240.314 23.192 239.381 22.319 C 238.448 21.439 237.031 20.999 235.131 20.999 C 233.058 20.999 231.508 21.742 230.481 23.229 C 229.454 24.709 228.924 27.009 228.891 30.129 L 228.891 32.409 C 228.891 35.669 229.388 38.049 230.381 39.549 C 231.368 41.056 232.921 41.809 235.041 41.809 C 236.961 41.809 238.394 41.372 239.341 40.499 C 240.288 39.619 240.831 38.262 240.971 36.429 L 247.181 36.429 ZM 254.262 46.469 L 254.262 16.319 L 263.542 16.319 C 266.189 16.319 268.559 16.916 270.652 18.109 C 272.746 19.309 274.379 21.009 275.552 23.209 C 276.726 25.409 277.312 27.909 277.312 30.709 L 277.312 32.099 C 277.312 34.899 276.736 37.392 275.582 39.579 C 274.429 41.759 272.802 43.449 270.702 44.649 C 268.602 45.849 266.236 46.456 263.602 46.469 L 254.262 46.469 M 260.472 21.359 L 260.472 41.479 L 263.482 41.479 C 265.909 41.479 267.762 40.686 269.042 39.099 C 270.329 37.512 270.986 35.242 271.012 32.289 L 271.012 30.689 C 271.012 27.629 270.379 25.309 269.112 23.729 C 267.839 22.149 265.982 21.359 263.542 21.359 L 260.472 21.359 ZM 300.458 38.559 C 300.458 37.386 300.044 36.486 299.218 35.859 C 298.391 35.232 296.901 34.569 294.748 33.869 C 292.594 33.176 290.891 32.489 289.638 31.809 C 286.211 29.962 284.498 27.472 284.498 24.339 C 284.498 22.706 284.958 21.252 285.878 19.979 C 286.791 18.699 288.108 17.702 289.828 16.989 C 291.548 16.269 293.478 15.909 295.618 15.909 C 297.771 15.909 299.688 16.299 301.368 17.079 C 303.054 17.859 304.364 18.959 305.298 20.379 C 306.231 21.799 306.698 23.416 306.698 25.229 L 300.478 25.229 C 300.478 23.849 300.044 22.776 299.178 22.009 C 298.311 21.242 297.091 20.859 295.518 20.859 C 293.998 20.859 292.814 21.179 291.968 21.819 C 291.128 22.459 290.708 23.306 290.708 24.359 C 290.708 25.339 291.201 26.159 292.188 26.819 C 293.174 27.479 294.628 28.099 296.548 28.679 C 300.081 29.746 302.654 31.066 304.268 32.639 C 305.888 34.212 306.698 36.172 306.698 38.519 C 306.698 41.126 305.711 43.172 303.738 44.659 C 301.758 46.139 299.098 46.879 295.758 46.879 C 293.444 46.879 291.334 46.456 289.428 45.609 C 287.521 44.762 286.068 43.599 285.068 42.119 C 284.068 40.646 283.568 38.936 283.568 36.989 L 289.798 36.989 C 289.798 40.316 291.784 41.979 295.758 41.979 C 297.238 41.979 298.391 41.679 299.218 41.079 C 300.044 40.479 300.458 39.639 300.458 38.559 Z" transform="matrix(3.1258909702301025, -0.011036000214517117, 0, 2.852519989013672, -525.0834350585938, -28.150426864624023)" style="fill: rgb(51, 55, 111); stroke-linejoin: miter; white-space: pre;"/>
      <g>
        <rect x="266.622" y="29.856" width="76.866" height="5.706" style="fill: white;"/>
      </g>
      <path d="M 266.454 43.288 H 343.32 V 48.994 H 266.454 V 43.288 Z" style="fill: white;"/>
      <path d="M 266.79 56.035 H 343.656 V 61.741 H 266.79 V 56.035 Z" style="fill: white;"/>
      <path d="M 268.468 69.126 H 345.334 V 74.832 H 268.468 V 69.126 Z" style="fill: white;"/>
      <g>
        <rect x="268.132" y="81.882" width="76.866" height="5.706" style="fill: white;"/>
      </g>
    </g>
    <path d="M 429.901 155.75" style="fill: none; stroke: black;"/>
  </g>
  <path d="M 164.892 109.297 L 434.289 108.793" style="fill: none; stroke: rgb(51, 55, 111);"/>
</svg>