<?xml version="1.0" encoding="UTF-8" standalone="no"?>
<svg
   xmlns:dc="http://purl.org/dc/elements/1.1/"
   xmlns:cc="http://creativecommons.org/ns#"
   xmlns:rdf="http://www.w3.org/1999/02/22-rdf-syntax-ns#"
   xmlns:svg="http://www.w3.org/2000/svg"
   xmlns="http://www.w3.org/2000/svg"
   xmlns:sodipodi="http://sodipodi.sourceforge.net/DTD/sodipodi-0.dtd"
   xmlns:inkscape="http://www.inkscape.org/namespaces/inkscape"
   style="clip-rule:evenodd;fill-rule:evenodd;stroke-linejoin:round;stroke-miterlimit:1.41420996"
   width="490"
   height="470.51422"
   viewBox="-70994 6 0 137"
   id="svg2"
   version="1.1"
   inkscape:version="0.91 r13725"
   sodipodi:docname="venn.svg"
   inkscape:export-filename="/home/joseph/CDS/img/venn.png"
   inkscape:export-xdpi="95.07"
   inkscape:export-ydpi="95.07">
  <metadata
     id="metadata20">
    <rdf:RDF>
      <cc:Work
         rdf:about="">
        <dc:format>image/svg+xml</dc:format>
        <dc:type
           rdf:resource="http://purl.org/dc/dcmitype/StillImage" />
        <dc:title></dc:title>
      </cc:Work>
    </rdf:RDF>
  </metadata>
  <defs
     id="defs18" />
  <sodipodi:namedview
     pagecolor="#ffffff"
     bordercolor="#666666"
     borderopacity="1"
     objecttolerance="10"
     gridtolerance="10"
     guidetolerance="10"
     inkscape:pageopacity="0"
     inkscape:pageshadow="2"
     inkscape:window-width="1855"
     inkscape:window-height="1056"
     id="namedview16"
     showgrid="false"
     fit-margin-top="20"
     fit-margin-left="20"
     fit-margin-right="20"
     fit-margin-bottom="20"
     inkscape:zoom="1.7226277"
     inkscape:cx="163.90345"
     inkscape:cy="249.02638"
     inkscape:window-x="65"
     inkscape:window-y="24"
     inkscape:window-maximized="1"
     inkscape:current-layer="svg2" />
  <g
     id="CDS_Logo_Test"
     transform="matrix(4.4518944,0,0,-4.4518944,461.34271,-1185.8237)">
    <g
       id="Layer 1"
       transform="matrix(0.303745,0,0,-0.303745,-101.907,-57.4302)">
      <g
         id="path3116"
         transform="matrix(1.3701,0,0,1.3701,36.562,671.99)">
        <path
           d="m 134.651,109.813 c 0,38.013 -30.816,68.83 -68.83,68.83 -38.014,0 -68.83,-30.817 -68.83,-68.83 0,-38.014 30.816,-68.831 68.83,-68.831 38.014,0 68.83,30.817 68.83,68.831 z"
           style="fill:#2b2e68;fill-opacity:0.78813602;fill-rule:nonzero"
           id="path7"
           inkscape:connector-curvature="0" />
      </g>
      <g
         id="path3952"
         transform="matrix(1.3701,0,0,1.3701,131.354,672.486)">
        <path
           d="m 134.651,109.813 c 0,38.013 -30.816,68.83 -68.83,68.83 -38.014,0 -68.83,-30.817 -68.83,-68.83 0,-38.014 30.816,-68.831 68.83,-68.831 38.014,0 68.83,30.817 68.83,68.831 z"
           style="fill:#2b2e68;fill-opacity:0.78813602;fill-rule:nonzero"
           id="path10"
           inkscape:connector-curvature="0" />
      </g>
      <g
         id="path3976"
         transform="matrix(1.3701,0,0,1.3701,83.1989,752.389)">
        <path
           d="m 134.651,109.813 c 0,38.013 -30.816,68.83 -68.83,68.83 -38.014,0 -68.83,-30.817 -68.83,-68.83 0,-38.014 30.816,-68.831 68.83,-68.831 38.014,0 68.83,30.817 68.83,68.831 z"
           style="fill:#2b2e68;fill-opacity:0.78813602;fill-rule:nonzero"
           id="path13"
           inkscape:connector-curvature="0" />
      </g>
      <path
         id="path3990"
         d="m 128.123,702.649 c -65.413,0 -119,53.545 -119,118.968 0,38.735 18.706,73.347 47.593,95.094 7.297,58.582 57.58,104.309 118.032,104.309 59.798,0 109.624,-44.743 117.75,-102.434 29.92,-21.646 49.406,-56.916 49.406,-96.469 0,-65.423 -53.587,-118.968 -119,-118.968 -16.547,0 -32.392,3.487 -46.813,9.656 -14.703,-6.488 -30.956,-10.156 -47.968,-10.156 l 0,0 z m -0.594,11.187 c 17.194,0 33.389,4.273 47.844,11.469 14.239,-6.909 30.125,-10.969 46.937,-10.969 59.369,0 107.813,48.407 107.813,107.781 0,37.571 -19.472,70.619 -48.75,89.907 -5.078,54.727 -51.225,97.816 -107.219,97.816 -56.532,0 -103.013,-43.947 -107.344,-99.41 -28.363,-19.435 -47.094,-51.95 -47.094,-88.813 0,-59.374 48.444,-107.781 107.813,-107.781 l 0,0 z"
         style="fill:#2b2e68;fill-rule:nonzero"
         inkscape:connector-curvature="0" />
    </g>
  </g>
</svg>
